<mxfile host="app.diagrams.net" modified="2023-06-15T15:24:36.249Z" agent="Mozilla/5.0 (X11; Ubuntu; Linux x86_64; rv:109.0) Gecko/20100101 Firefox/114.0" etag="5SlnbuzjU-KiZ-NyAATK" version="21.3.6" type="device">
  <diagram id="sNHUYcScr_lrZ1LzuWTF" name="Page-1">
    <mxGraphModel dx="830" dy="462" grid="1" gridSize="10" guides="1" tooltips="1" connect="1" arrows="1" fold="1" page="1" pageScale="1" pageWidth="827" pageHeight="1169" math="0" shadow="0">
      <root>
        <mxCell id="0" />
        <mxCell id="1" parent="0" />
        <mxCell id="bBt4X0M5Szbjh47Dpjpm-1" value="" style="edgeStyle=elbowEdgeStyle;elbow=vertical;endArrow=classic;html=1;rounded=0;fontSize=14;entryX=0;entryY=0.5;entryDx=0;entryDy=0;fillColor=#bac8d3;strokeColor=#67AB9F;strokeWidth=3;exitX=0.5;exitY=0;exitDx=0;exitDy=0;" edge="1" parent="1" source="bBt4X0M5Szbjh47Dpjpm-4" target="bBt4X0M5Szbjh47Dpjpm-6">
          <mxGeometry width="50" height="50" relative="1" as="geometry">
            <mxPoint x="502" y="360" as="sourcePoint" />
            <mxPoint x="640" y="415" as="targetPoint" />
            <Array as="points">
              <mxPoint x="360" y="320" />
            </Array>
          </mxGeometry>
        </mxCell>
        <mxCell id="bBt4X0M5Szbjh47Dpjpm-2" value="&lt;font style=&quot;font-size: 18px;&quot;&gt;MCU&lt;/font&gt;" style="rounded=1;whiteSpace=wrap;html=1;fillColor=#f5f5f5;strokeColor=#666666;fontColor=#333333;" vertex="1" parent="1">
          <mxGeometry x="400" y="480" width="80" height="80" as="geometry" />
        </mxCell>
        <mxCell id="bBt4X0M5Szbjh47Dpjpm-3" value="&lt;font style=&quot;font-size: 16px;&quot; color=&quot;#63452c&quot;&gt;Boost&lt;/font&gt;" style="rounded=1;whiteSpace=wrap;html=1;fillColor=#f9f7ed;strokeColor=#36393d;" vertex="1" parent="1">
          <mxGeometry x="151" y="350" width="80" height="40" as="geometry" />
        </mxCell>
        <mxCell id="bBt4X0M5Szbjh47Dpjpm-4" value="&lt;font style=&quot;font-size: 16px;&quot; color=&quot;#63452c&quot;&gt;Buck&lt;/font&gt;" style="rounded=1;whiteSpace=wrap;html=1;fillColor=#f9f7ed;strokeColor=#36393d;" vertex="1" parent="1">
          <mxGeometry x="246" y="370" width="80" height="40" as="geometry" />
        </mxCell>
        <mxCell id="bBt4X0M5Szbjh47Dpjpm-5" value="LDO" style="rounded=1;whiteSpace=wrap;html=1;" vertex="1" parent="1">
          <mxGeometry x="260" y="580" width="50" height="20" as="geometry" />
        </mxCell>
        <mxCell id="bBt4X0M5Szbjh47Dpjpm-6" value="&lt;div&gt;Current&lt;/div&gt;&lt;div&gt;Sensor&lt;br&gt;&lt;/div&gt;" style="rounded=1;whiteSpace=wrap;html=1;fillColor=none;" vertex="1" parent="1">
          <mxGeometry x="437" y="300" width="80" height="40" as="geometry" />
        </mxCell>
        <mxCell id="bBt4X0M5Szbjh47Dpjpm-7" value="&lt;div&gt;Plug-in&lt;/div&gt;&lt;div&gt;Module&lt;br&gt;&lt;/div&gt;" style="rounded=1;whiteSpace=wrap;html=1;" vertex="1" parent="1">
          <mxGeometry x="590" y="470" width="80" height="40" as="geometry" />
        </mxCell>
        <mxCell id="bBt4X0M5Szbjh47Dpjpm-8" value="Display" style="rounded=1;whiteSpace=wrap;html=1;" vertex="1" parent="1">
          <mxGeometry x="340" y="630" width="60" height="40" as="geometry" />
        </mxCell>
        <mxCell id="bBt4X0M5Szbjh47Dpjpm-9" value="Buzzer" style="rounded=1;whiteSpace=wrap;html=1;" vertex="1" parent="1">
          <mxGeometry x="410" y="630" width="60" height="40" as="geometry" />
        </mxCell>
        <mxCell id="bBt4X0M5Szbjh47Dpjpm-10" value="Encoder" style="rounded=1;whiteSpace=wrap;html=1;" vertex="1" parent="1">
          <mxGeometry x="480" y="630" width="60" height="40" as="geometry" />
        </mxCell>
        <mxCell id="bBt4X0M5Szbjh47Dpjpm-11" value="&lt;div&gt;Button&lt;/div&gt;" style="rounded=1;whiteSpace=wrap;html=1;" vertex="1" parent="1">
          <mxGeometry x="550" y="630" width="60" height="40" as="geometry" />
        </mxCell>
        <mxCell id="bBt4X0M5Szbjh47Dpjpm-12" value="&lt;div&gt;RS-485&lt;br&gt;&lt;/div&gt;" style="rounded=1;whiteSpace=wrap;html=1;" vertex="1" parent="1">
          <mxGeometry x="590" y="520" width="80" height="40" as="geometry" />
        </mxCell>
        <mxCell id="bBt4X0M5Szbjh47Dpjpm-13" value="" style="edgeStyle=elbowEdgeStyle;elbow=vertical;endArrow=classic;html=1;rounded=0;fontSize=14;entryX=0.5;entryY=0;entryDx=0;entryDy=0;startArrow=classic;startFill=1;dashed=1;dashPattern=1 2;" edge="1" parent="1" target="bBt4X0M5Szbjh47Dpjpm-8">
          <mxGeometry width="50" height="50" relative="1" as="geometry">
            <mxPoint x="420" y="560" as="sourcePoint" />
            <mxPoint x="500" y="510" as="targetPoint" />
          </mxGeometry>
        </mxCell>
        <mxCell id="bBt4X0M5Szbjh47Dpjpm-14" value="" style="edgeStyle=elbowEdgeStyle;elbow=vertical;endArrow=none;html=1;rounded=0;fontSize=14;entryX=0.5;entryY=0;entryDx=0;entryDy=0;exitX=0.75;exitY=1;exitDx=0;exitDy=0;startArrow=classic;startFill=1;dashed=1;dashPattern=1 2;endFill=0;" edge="1" parent="1" source="bBt4X0M5Szbjh47Dpjpm-2" target="bBt4X0M5Szbjh47Dpjpm-10">
          <mxGeometry width="50" height="50" relative="1" as="geometry">
            <mxPoint x="430" y="570" as="sourcePoint" />
            <mxPoint x="380" y="640" as="targetPoint" />
          </mxGeometry>
        </mxCell>
        <mxCell id="bBt4X0M5Szbjh47Dpjpm-15" value="" style="edgeStyle=segmentEdgeStyle;endArrow=none;html=1;rounded=0;fontSize=14;entryX=0.5;entryY=0;entryDx=0;entryDy=0;startArrow=classic;startFill=1;endFill=0;dashed=1;dashPattern=1 2;" edge="1" parent="1" target="bBt4X0M5Szbjh47Dpjpm-11">
          <mxGeometry width="50" height="50" relative="1" as="geometry">
            <mxPoint x="480" y="540" as="sourcePoint" />
            <mxPoint x="500" y="510" as="targetPoint" />
            <Array as="points">
              <mxPoint x="510" y="540" />
              <mxPoint x="510" y="570" />
              <mxPoint x="580" y="570" />
            </Array>
          </mxGeometry>
        </mxCell>
        <mxCell id="bBt4X0M5Szbjh47Dpjpm-16" value="" style="edgeStyle=elbowEdgeStyle;elbow=horizontal;endArrow=classic;html=1;rounded=0;fontSize=14;entryX=0;entryY=0.5;entryDx=0;entryDy=0;exitX=0.429;exitY=0;exitDx=0;exitDy=0;exitPerimeter=0;strokeColor=#C3ABD0;" edge="1" parent="1" source="bBt4X0M5Szbjh47Dpjpm-46" target="bBt4X0M5Szbjh47Dpjpm-5">
          <mxGeometry width="50" height="50" relative="1" as="geometry">
            <mxPoint x="210" y="370" as="sourcePoint" />
            <mxPoint x="410" y="410" as="targetPoint" />
            <Array as="points">
              <mxPoint x="240" y="630" />
            </Array>
          </mxGeometry>
        </mxCell>
        <mxCell id="bBt4X0M5Szbjh47Dpjpm-17" value="" style="edgeStyle=elbowEdgeStyle;elbow=vertical;endArrow=classic;html=1;rounded=0;fontSize=14;exitX=0.25;exitY=0;exitDx=0;exitDy=0;strokeColor=#C3ABD0;strokeWidth=3;entryX=0.25;entryY=1;entryDx=0;entryDy=0;" edge="1" parent="1" source="bBt4X0M5Szbjh47Dpjpm-46" target="bBt4X0M5Szbjh47Dpjpm-4">
          <mxGeometry width="50" height="50" relative="1" as="geometry">
            <mxPoint x="210" y="370" as="sourcePoint" />
            <mxPoint x="270" y="430" as="targetPoint" />
            <Array as="points">
              <mxPoint x="250" y="470" />
            </Array>
          </mxGeometry>
        </mxCell>
        <mxCell id="bBt4X0M5Szbjh47Dpjpm-18" value="" style="endArrow=classic;html=1;rounded=0;fontSize=14;entryX=0.5;entryY=0;entryDx=0;entryDy=0;exitX=0.5;exitY=1;exitDx=0;exitDy=0;dashed=1;dashPattern=1 2;" edge="1" parent="1" source="bBt4X0M5Szbjh47Dpjpm-2" target="bBt4X0M5Szbjh47Dpjpm-9">
          <mxGeometry width="50" height="50" relative="1" as="geometry">
            <mxPoint x="470" y="550" as="sourcePoint" />
            <mxPoint x="540" y="550" as="targetPoint" />
          </mxGeometry>
        </mxCell>
        <mxCell id="bBt4X0M5Szbjh47Dpjpm-19" value="" style="endArrow=classic;html=1;rounded=0;fontSize=14;entryX=0;entryY=0.75;entryDx=0;entryDy=0;exitX=1;exitY=0.25;exitDx=0;exitDy=0;startArrow=classic;startFill=1;dashed=1;dashPattern=1 2;" edge="1" parent="1" source="bBt4X0M5Szbjh47Dpjpm-2" target="bBt4X0M5Szbjh47Dpjpm-7">
          <mxGeometry width="50" height="50" relative="1" as="geometry">
            <mxPoint x="480" y="500" as="sourcePoint" />
            <mxPoint x="560" y="500" as="targetPoint" />
          </mxGeometry>
        </mxCell>
        <mxCell id="bBt4X0M5Szbjh47Dpjpm-20" value="&lt;font color=&quot;#000000&quot;&gt;DAC&lt;/font&gt;" style="rounded=1;whiteSpace=wrap;html=1;fillColor=#fff2cc;strokeColor=#d6b656;" vertex="1" parent="1">
          <mxGeometry x="291" y="470" width="30" height="20" as="geometry" />
        </mxCell>
        <mxCell id="bBt4X0M5Szbjh47Dpjpm-21" value="" style="endArrow=classic;html=1;rounded=0;fontSize=16;exitX=0.5;exitY=0;exitDx=0;exitDy=0;entryX=0.75;entryY=1;entryDx=0;entryDy=0;startArrow=none;" edge="1" parent="1" source="bBt4X0M5Szbjh47Dpjpm-48" target="bBt4X0M5Szbjh47Dpjpm-4">
          <mxGeometry width="50" height="50" relative="1" as="geometry">
            <mxPoint x="450" y="560" as="sourcePoint" />
            <mxPoint x="500" y="510" as="targetPoint" />
          </mxGeometry>
        </mxCell>
        <mxCell id="bBt4X0M5Szbjh47Dpjpm-22" value="" style="edgeStyle=elbowEdgeStyle;elbow=horizontal;endArrow=classicThin;html=1;rounded=0;fontSize=16;entryX=1;entryY=0.5;entryDx=0;entryDy=0;exitX=0;exitY=0.25;exitDx=0;exitDy=0;dashed=1;dashPattern=1 2;endFill=1;startArrow=classicThin;startFill=1;" edge="1" parent="1" source="bBt4X0M5Szbjh47Dpjpm-2" target="bBt4X0M5Szbjh47Dpjpm-20">
          <mxGeometry width="50" height="50" relative="1" as="geometry">
            <mxPoint x="450" y="560" as="sourcePoint" />
            <mxPoint x="500" y="510" as="targetPoint" />
            <Array as="points">
              <mxPoint x="350" y="490" />
            </Array>
          </mxGeometry>
        </mxCell>
        <mxCell id="bBt4X0M5Szbjh47Dpjpm-23" value="&lt;font style=&quot;font-size: 10px;&quot;&gt;I&lt;sup&gt;2&lt;/sup&gt;C&lt;/font&gt;" style="edgeLabel;html=1;align=center;verticalAlign=middle;resizable=0;points=[];fontSize=16;" vertex="1" connectable="0" parent="1">
          <mxGeometry x="379" y="495.0019047619047" as="geometry">
            <mxPoint x="2" y="4" as="offset" />
          </mxGeometry>
        </mxCell>
        <mxCell id="bBt4X0M5Szbjh47Dpjpm-24" value="&lt;font style=&quot;font-size: 10px;&quot;&gt;GPIO&lt;/font&gt;" style="edgeLabel;html=1;align=center;verticalAlign=middle;resizable=0;points=[];fontSize=16;" vertex="1" connectable="0" parent="1">
          <mxGeometry x="551" y="565.0019047619047" as="geometry">
            <mxPoint x="2" y="4" as="offset" />
          </mxGeometry>
        </mxCell>
        <mxCell id="bBt4X0M5Szbjh47Dpjpm-25" value="&lt;font style=&quot;font-size: 10px;&quot;&gt;GPIO&lt;/font&gt;" style="edgeLabel;html=1;align=center;verticalAlign=middle;resizable=0;points=[];fontSize=16;" vertex="1" connectable="0" parent="1">
          <mxGeometry x="390" y="590.0019047619047" as="geometry">
            <mxPoint x="2" y="4" as="offset" />
          </mxGeometry>
        </mxCell>
        <mxCell id="bBt4X0M5Szbjh47Dpjpm-26" value="&lt;font style=&quot;font-size: 11px;&quot;&gt;PWM&lt;/font&gt;" style="edgeLabel;html=1;align=center;verticalAlign=middle;resizable=0;points=[];fontSize=16;" vertex="1" connectable="0" parent="1">
          <mxGeometry x="437" y="600.0019047619047" as="geometry">
            <mxPoint x="2" y="4" as="offset" />
          </mxGeometry>
        </mxCell>
        <mxCell id="bBt4X0M5Szbjh47Dpjpm-27" value="&lt;font style=&quot;font-size: 11px;&quot;&gt;PWM&lt;/font&gt;" style="edgeLabel;html=1;align=center;verticalAlign=middle;resizable=0;points=[];fontSize=16;" vertex="1" connectable="0" parent="1">
          <mxGeometry x="482" y="590.0019047619047" as="geometry">
            <mxPoint x="2" y="4" as="offset" />
          </mxGeometry>
        </mxCell>
        <mxCell id="bBt4X0M5Szbjh47Dpjpm-28" value="&lt;font style=&quot;font-size: 10px;&quot;&gt;SPI&lt;/font&gt;" style="edgeLabel;html=1;align=center;verticalAlign=middle;resizable=0;points=[];fontSize=16;" vertex="1" connectable="0" parent="1">
          <mxGeometry x="534" y="495.0019047619047" as="geometry">
            <mxPoint x="-4" y="3" as="offset" />
          </mxGeometry>
        </mxCell>
        <mxCell id="bBt4X0M5Szbjh47Dpjpm-29" value="&lt;font color=&quot;#5e5c64&quot;&gt;H-Bridge&lt;/font&gt;" style="html=1;whiteSpace=wrap;container=1;recursiveResize=0;collapsible=0;fontSize=14;fillColor=none;" vertex="1" parent="1">
          <mxGeometry x="520" y="385" width="70" height="40" as="geometry" />
        </mxCell>
        <mxCell id="bBt4X0M5Szbjh47Dpjpm-30" value="&lt;font style=&quot;font-size: 10px;&quot; color=&quot;#000000&quot;&gt;Voltage Monitor&lt;/font&gt;" style="rounded=1;whiteSpace=wrap;html=1;fillColor=#fff2cc;strokeColor=#d6b656;" vertex="1" parent="1">
          <mxGeometry x="260" y="505" width="50" height="30" as="geometry" />
        </mxCell>
        <mxCell id="bBt4X0M5Szbjh47Dpjpm-31" value="" style="edgeStyle=elbowEdgeStyle;elbow=horizontal;endArrow=classic;html=1;rounded=0;fontSize=14;entryX=0;entryY=0.5;entryDx=0;entryDy=0;exitX=1;exitY=0.5;exitDx=0;exitDy=0;dashed=1;dashPattern=1 2;startArrow=classic;startFill=1;" edge="1" parent="1" source="bBt4X0M5Szbjh47Dpjpm-2" target="bBt4X0M5Szbjh47Dpjpm-12">
          <mxGeometry width="50" height="50" relative="1" as="geometry">
            <mxPoint x="494" y="545" as="sourcePoint" />
            <mxPoint x="574" y="575" as="targetPoint" />
          </mxGeometry>
        </mxCell>
        <mxCell id="bBt4X0M5Szbjh47Dpjpm-32" value="&lt;font style=&quot;font-size: 10px;&quot;&gt;UART&lt;/font&gt;" style="edgeLabel;html=1;align=center;verticalAlign=middle;resizable=0;points=[];fontSize=16;" vertex="1" connectable="0" parent="1">
          <mxGeometry x="559" y="536.0019047619047" as="geometry">
            <mxPoint x="-4" y="3" as="offset" />
          </mxGeometry>
        </mxCell>
        <mxCell id="bBt4X0M5Szbjh47Dpjpm-33" value="" style="edgeStyle=elbowEdgeStyle;elbow=horizontal;endArrow=classic;html=1;rounded=0;fontSize=14;entryX=0;entryY=0.5;entryDx=0;entryDy=0;exitX=1;exitY=0.5;exitDx=0;exitDy=0;dashed=1;dashPattern=1 2;startArrow=none;" edge="1" parent="1" source="bBt4X0M5Szbjh47Dpjpm-44" target="bBt4X0M5Szbjh47Dpjpm-2">
          <mxGeometry width="50" height="50" relative="1" as="geometry">
            <mxPoint x="490" y="530" as="sourcePoint" />
            <mxPoint x="570" y="550" as="targetPoint" />
          </mxGeometry>
        </mxCell>
        <mxCell id="bBt4X0M5Szbjh47Dpjpm-34" value="&lt;font style=&quot;font-size: 10px;&quot;&gt;ADC&lt;/font&gt;" style="edgeLabel;html=1;align=center;verticalAlign=middle;resizable=0;points=[];fontSize=16;" vertex="1" connectable="0" parent="1">
          <mxGeometry x="369" y="515.0019047619047" as="geometry">
            <mxPoint x="2" y="4" as="offset" />
          </mxGeometry>
        </mxCell>
        <mxCell id="bBt4X0M5Szbjh47Dpjpm-35" value="" style="edgeStyle=elbowEdgeStyle;elbow=horizontal;endArrow=classic;html=1;rounded=0;fontSize=14;entryX=0;entryY=0.5;entryDx=0;entryDy=0;exitX=0.5;exitY=0;exitDx=0;exitDy=0;strokeColor=#C3ABD0;" edge="1" parent="1" source="bBt4X0M5Szbjh47Dpjpm-46" target="bBt4X0M5Szbjh47Dpjpm-30">
          <mxGeometry width="50" height="50" relative="1" as="geometry">
            <mxPoint x="210" y="370" as="sourcePoint" />
            <mxPoint x="305" y="530" as="targetPoint" />
            <Array as="points">
              <mxPoint x="240" y="530" />
            </Array>
          </mxGeometry>
        </mxCell>
        <mxCell id="bBt4X0M5Szbjh47Dpjpm-36" value="" style="edgeStyle=elbowEdgeStyle;elbow=horizontal;endArrow=classic;html=1;rounded=0;fontSize=14;entryX=0;entryY=0.75;entryDx=0;entryDy=0;exitX=1;exitY=0.5;exitDx=0;exitDy=0;strokeColor=#FF6666;" edge="1" parent="1" source="bBt4X0M5Szbjh47Dpjpm-5" target="bBt4X0M5Szbjh47Dpjpm-2">
          <mxGeometry width="50" height="50" relative="1" as="geometry">
            <mxPoint x="320" y="610" as="sourcePoint" />
            <mxPoint x="386" y="560" as="targetPoint" />
            <Array as="points">
              <mxPoint x="360" y="570" />
            </Array>
          </mxGeometry>
        </mxCell>
        <mxCell id="bBt4X0M5Szbjh47Dpjpm-37" value="&lt;font style=&quot;font-size: 10px;&quot; color=&quot;#ff6666&quot;&gt;3V3&lt;/font&gt;" style="edgeLabel;html=1;align=center;verticalAlign=middle;resizable=0;points=[];fontSize=16;" vertex="1" connectable="0" parent="1">
          <mxGeometry x="356" y="559.0019047619047" as="geometry">
            <mxPoint x="2" y="4" as="offset" />
          </mxGeometry>
        </mxCell>
        <mxCell id="bBt4X0M5Szbjh47Dpjpm-38" value="" style="edgeStyle=segmentEdgeStyle;endArrow=none;html=1;rounded=0;fontSize=14;startArrow=classic;startFill=1;endFill=0;exitX=0.5;exitY=1;exitDx=0;exitDy=0;entryX=1;entryY=0.5;entryDx=0;entryDy=0;strokeColor=#FF6666;" edge="1" parent="1" source="bBt4X0M5Szbjh47Dpjpm-11" target="bBt4X0M5Szbjh47Dpjpm-5">
          <mxGeometry width="50" height="50" relative="1" as="geometry">
            <mxPoint x="670" y="690" as="sourcePoint" />
            <mxPoint x="340" y="700" as="targetPoint" />
            <Array as="points">
              <mxPoint x="580" y="700" />
              <mxPoint x="320" y="700" />
              <mxPoint x="320" y="590" />
            </Array>
          </mxGeometry>
        </mxCell>
        <mxCell id="bBt4X0M5Szbjh47Dpjpm-39" value="" style="edgeStyle=segmentEdgeStyle;endArrow=none;html=1;rounded=0;fontSize=14;startArrow=classic;startFill=1;endFill=0;exitX=0.5;exitY=1;exitDx=0;exitDy=0;entryX=1;entryY=0.5;entryDx=0;entryDy=0;strokeColor=#FF6666;" edge="1" parent="1" source="bBt4X0M5Szbjh47Dpjpm-10" target="bBt4X0M5Szbjh47Dpjpm-5">
          <mxGeometry width="50" height="50" relative="1" as="geometry">
            <mxPoint x="590" y="680" as="sourcePoint" />
            <mxPoint x="320" y="600" as="targetPoint" />
            <Array as="points">
              <mxPoint x="510" y="700" />
              <mxPoint x="320" y="700" />
              <mxPoint x="320" y="590" />
            </Array>
          </mxGeometry>
        </mxCell>
        <mxCell id="bBt4X0M5Szbjh47Dpjpm-40" value="" style="edgeStyle=segmentEdgeStyle;endArrow=none;html=1;rounded=0;fontSize=14;startArrow=classic;startFill=1;endFill=0;exitX=0.5;exitY=1;exitDx=0;exitDy=0;entryX=1;entryY=0.5;entryDx=0;entryDy=0;strokeColor=#FF6666;" edge="1" parent="1" source="bBt4X0M5Szbjh47Dpjpm-9" target="bBt4X0M5Szbjh47Dpjpm-5">
          <mxGeometry width="50" height="50" relative="1" as="geometry">
            <mxPoint x="520" y="680" as="sourcePoint" />
            <mxPoint x="320" y="600" as="targetPoint" />
            <Array as="points">
              <mxPoint x="440" y="700" />
              <mxPoint x="320" y="700" />
              <mxPoint x="320" y="590" />
            </Array>
          </mxGeometry>
        </mxCell>
        <mxCell id="bBt4X0M5Szbjh47Dpjpm-41" value="" style="edgeStyle=segmentEdgeStyle;endArrow=none;html=1;rounded=0;fontSize=14;startArrow=classic;startFill=1;endFill=0;exitX=0.5;exitY=1;exitDx=0;exitDy=0;entryX=1;entryY=0.5;entryDx=0;entryDy=0;strokeColor=#FF6666;" edge="1" parent="1" source="bBt4X0M5Szbjh47Dpjpm-8" target="bBt4X0M5Szbjh47Dpjpm-5">
          <mxGeometry width="50" height="50" relative="1" as="geometry">
            <mxPoint x="450" y="680" as="sourcePoint" />
            <mxPoint x="320" y="600" as="targetPoint" />
            <Array as="points">
              <mxPoint x="370" y="700" />
              <mxPoint x="320" y="700" />
              <mxPoint x="320" y="590" />
            </Array>
          </mxGeometry>
        </mxCell>
        <mxCell id="bBt4X0M5Szbjh47Dpjpm-42" value="" style="edgeStyle=segmentEdgeStyle;endArrow=none;html=1;rounded=0;fontSize=14;startArrow=classic;startFill=1;endFill=0;exitX=0.5;exitY=1;exitDx=0;exitDy=0;strokeColor=#FF6666;" edge="1" parent="1" source="bBt4X0M5Szbjh47Dpjpm-12">
          <mxGeometry width="50" height="50" relative="1" as="geometry">
            <mxPoint x="690" y="680" as="sourcePoint" />
            <mxPoint x="310" y="590" as="targetPoint" />
            <Array as="points">
              <mxPoint x="630" y="700" />
              <mxPoint x="320" y="700" />
              <mxPoint x="320" y="590" />
            </Array>
          </mxGeometry>
        </mxCell>
        <mxCell id="bBt4X0M5Szbjh47Dpjpm-43" value="" style="edgeStyle=segmentEdgeStyle;endArrow=none;html=1;rounded=0;fontSize=14;startArrow=classic;startFill=1;endFill=0;strokeColor=#FF6666;entryX=1;entryY=0.5;entryDx=0;entryDy=0;exitX=0.75;exitY=1;exitDx=0;exitDy=0;" edge="1" parent="1" source="bBt4X0M5Szbjh47Dpjpm-6" target="bBt4X0M5Szbjh47Dpjpm-5">
          <mxGeometry width="50" height="50" relative="1" as="geometry">
            <mxPoint x="680" y="420" as="sourcePoint" />
            <mxPoint x="320" y="600" as="targetPoint" />
            <Array as="points">
              <mxPoint x="497" y="450" />
              <mxPoint x="680" y="450" />
              <mxPoint x="680" y="700" />
              <mxPoint x="320" y="700" />
              <mxPoint x="320" y="590" />
            </Array>
          </mxGeometry>
        </mxCell>
        <mxCell id="bBt4X0M5Szbjh47Dpjpm-44" value="&lt;div style=&quot;font-size: 8px;&quot;&gt;&lt;font style=&quot;font-size: 8px;&quot;&gt;Voltage&lt;/font&gt;&lt;/div&gt;&lt;div style=&quot;font-size: 8px;&quot;&gt;&lt;font style=&quot;font-size: 8px;&quot;&gt;Follower&lt;font style=&quot;font-size: 8px;&quot;&gt;&lt;br style=&quot;font-size: 8px;&quot;&gt;&lt;/font&gt;&lt;/font&gt;&lt;/div&gt;" style="rounded=1;whiteSpace=wrap;html=1;fontSize=8;" vertex="1" parent="1">
          <mxGeometry x="316" y="507.5" width="40" height="25" as="geometry" />
        </mxCell>
        <mxCell id="bBt4X0M5Szbjh47Dpjpm-45" value="" style="edgeStyle=elbowEdgeStyle;elbow=horizontal;endArrow=none;html=1;rounded=0;fontSize=14;entryX=0;entryY=0.5;entryDx=0;entryDy=0;exitX=1;exitY=0.5;exitDx=0;exitDy=0;dashed=1;dashPattern=1 2;" edge="1" parent="1" source="bBt4X0M5Szbjh47Dpjpm-30" target="bBt4X0M5Szbjh47Dpjpm-44">
          <mxGeometry width="50" height="50" relative="1" as="geometry">
            <mxPoint x="316" y="520" as="sourcePoint" />
            <mxPoint x="400" y="520" as="targetPoint" />
          </mxGeometry>
        </mxCell>
        <mxCell id="bBt4X0M5Szbjh47Dpjpm-46" value="&lt;div style=&quot;font-size: 10px;&quot;&gt;&lt;font color=&quot;#a51d2d&quot;&gt;Power&lt;br&gt;&lt;/font&gt;&lt;/div&gt;&lt;div&gt;&lt;font color=&quot;#a51d2d&quot;&gt;Switch&lt;br&gt;&lt;/font&gt;&lt;/div&gt;" style="html=1;whiteSpace=wrap;container=1;recursiveResize=0;collapsible=0;fontSize=10;fillColor=#f8cecc;strokeColor=#b85450;" vertex="1" parent="1">
          <mxGeometry x="226" y="660" width="60" height="40" as="geometry" />
        </mxCell>
        <mxCell id="bBt4X0M5Szbjh47Dpjpm-47" value="" style="edgeStyle=elbowEdgeStyle;elbow=vertical;endArrow=classic;html=1;rounded=0;fontSize=14;exitX=0.25;exitY=0;exitDx=0;exitDy=0;fillColor=#ffcc99;strokeColor=#C3ABD0;strokeWidth=3;entryX=0.75;entryY=1;entryDx=0;entryDy=0;" edge="1" parent="1" source="bBt4X0M5Szbjh47Dpjpm-46" target="bBt4X0M5Szbjh47Dpjpm-3">
          <mxGeometry width="50" height="50" relative="1" as="geometry">
            <mxPoint x="210" y="660" as="sourcePoint" />
            <mxPoint x="190" y="430" as="targetPoint" />
            <Array as="points">
              <mxPoint x="230" y="470" />
            </Array>
          </mxGeometry>
        </mxCell>
        <mxCell id="bBt4X0M5Szbjh47Dpjpm-48" value="&lt;div style=&quot;font-size: 8px;&quot;&gt;&lt;font style=&quot;font-size: 8px;&quot;&gt;Voltage&lt;/font&gt;&lt;/div&gt;&lt;div style=&quot;font-size: 8px;&quot;&gt;&lt;font style=&quot;font-size: 8px;&quot;&gt;Follower&lt;font style=&quot;font-size: 8px;&quot;&gt;&lt;br style=&quot;font-size: 8px;&quot;&gt;&lt;/font&gt;&lt;/font&gt;&lt;/div&gt;" style="rounded=1;whiteSpace=wrap;html=1;fontSize=8;" vertex="1" parent="1">
          <mxGeometry x="286" y="430" width="40" height="25" as="geometry" />
        </mxCell>
        <mxCell id="bBt4X0M5Szbjh47Dpjpm-49" value="" style="endArrow=none;html=1;rounded=0;fontSize=16;exitX=0.5;exitY=0;exitDx=0;exitDy=0;entryX=0.5;entryY=1;entryDx=0;entryDy=0;" edge="1" parent="1" source="bBt4X0M5Szbjh47Dpjpm-20" target="bBt4X0M5Szbjh47Dpjpm-48">
          <mxGeometry width="50" height="50" relative="1" as="geometry">
            <mxPoint x="306" y="470" as="sourcePoint" />
            <mxPoint x="306" y="420" as="targetPoint" />
          </mxGeometry>
        </mxCell>
        <mxCell id="bBt4X0M5Szbjh47Dpjpm-50" value="&lt;font color=&quot;#000000&quot;&gt;DAC&lt;/font&gt;" style="rounded=1;whiteSpace=wrap;html=1;fillColor=#fff2cc;strokeColor=#d6b656;" vertex="1" parent="1">
          <mxGeometry x="156" y="490" width="30" height="20" as="geometry" />
        </mxCell>
        <mxCell id="bBt4X0M5Szbjh47Dpjpm-51" value="" style="edgeStyle=elbowEdgeStyle;elbow=horizontal;endArrow=classicThin;html=1;rounded=0;fontSize=16;entryX=1;entryY=0.5;entryDx=0;entryDy=0;exitX=0;exitY=0.25;exitDx=0;exitDy=0;dashed=1;dashPattern=1 2;endFill=1;startArrow=classicThin;startFill=1;" edge="1" parent="1" source="bBt4X0M5Szbjh47Dpjpm-2" target="bBt4X0M5Szbjh47Dpjpm-50">
          <mxGeometry width="50" height="50" relative="1" as="geometry">
            <mxPoint x="410" y="510" as="sourcePoint" />
            <mxPoint x="331" y="490" as="targetPoint" />
            <Array as="points">
              <mxPoint x="370" y="480" />
            </Array>
          </mxGeometry>
        </mxCell>
        <mxCell id="bBt4X0M5Szbjh47Dpjpm-52" value="" style="edgeStyle=elbowEdgeStyle;elbow=vertical;endArrow=classic;html=1;rounded=0;fontSize=14;fillColor=none;strokeWidth=3;exitX=1;exitY=0.5;exitDx=0;exitDy=0;entryX=0.5;entryY=0;entryDx=0;entryDy=0;" edge="1" parent="1" source="bBt4X0M5Szbjh47Dpjpm-6" target="bBt4X0M5Szbjh47Dpjpm-29">
          <mxGeometry width="50" height="50" relative="1" as="geometry">
            <mxPoint x="710" y="380" as="sourcePoint" />
            <mxPoint x="569" y="270" as="targetPoint" />
            <Array as="points">
              <mxPoint x="540" y="320" />
            </Array>
          </mxGeometry>
        </mxCell>
        <mxCell id="bBt4X0M5Szbjh47Dpjpm-53" value="" style="edgeStyle=elbowEdgeStyle;elbow=vertical;endArrow=classicThin;html=1;rounded=0;fontSize=16;exitX=0.75;exitY=0;exitDx=0;exitDy=0;dashed=1;dashPattern=1 2;endFill=1;startArrow=classicThin;startFill=1;entryX=0.5;entryY=1;entryDx=0;entryDy=0;" edge="1" parent="1" source="bBt4X0M5Szbjh47Dpjpm-2" target="bBt4X0M5Szbjh47Dpjpm-6">
          <mxGeometry width="50" height="50" relative="1" as="geometry">
            <mxPoint x="410" y="510" as="sourcePoint" />
            <mxPoint x="620" y="420" as="targetPoint" />
            <Array as="points">
              <mxPoint x="460" y="380" />
              <mxPoint x="470" y="410" />
            </Array>
          </mxGeometry>
        </mxCell>
        <mxCell id="bBt4X0M5Szbjh47Dpjpm-54" value="&lt;font style=&quot;font-size: 10px;&quot;&gt;I&lt;sup&gt;2&lt;/sup&gt;C&lt;/font&gt;" style="edgeLabel;html=1;align=center;verticalAlign=middle;resizable=0;points=[];fontSize=16;labelBackgroundColor=none;" vertex="1" connectable="0" parent="1">
          <mxGeometry x="459" y="431.0019047619047" as="geometry">
            <mxPoint x="2" y="4" as="offset" />
          </mxGeometry>
        </mxCell>
        <mxCell id="bBt4X0M5Szbjh47Dpjpm-55" value="" style="endArrow=classic;html=1;rounded=0;fontSize=16;exitX=0.5;exitY=0;exitDx=0;exitDy=0;entryX=0.25;entryY=1;entryDx=0;entryDy=0;startArrow=none;" edge="1" parent="1" source="bBt4X0M5Szbjh47Dpjpm-50" target="bBt4X0M5Szbjh47Dpjpm-3">
          <mxGeometry width="50" height="50" relative="1" as="geometry">
            <mxPoint x="316" y="440" as="sourcePoint" />
            <mxPoint x="316" y="420" as="targetPoint" />
          </mxGeometry>
        </mxCell>
        <mxCell id="bBt4X0M5Szbjh47Dpjpm-56" value="&lt;div style=&quot;font-size: 8px;&quot;&gt;&lt;font style=&quot;font-size: 8px;&quot;&gt;Voltage&lt;/font&gt;&lt;/div&gt;&lt;div style=&quot;font-size: 8px;&quot;&gt;&lt;font style=&quot;font-size: 8px;&quot;&gt;Follower&lt;font style=&quot;font-size: 8px;&quot;&gt;&lt;br style=&quot;font-size: 8px;&quot;&gt;&lt;/font&gt;&lt;/font&gt;&lt;/div&gt;" style="rounded=1;whiteSpace=wrap;html=1;fontSize=8;" vertex="1" parent="1">
          <mxGeometry x="151" y="445" width="40" height="25" as="geometry" />
        </mxCell>
        <mxCell id="bBt4X0M5Szbjh47Dpjpm-57" value="" style="edgeStyle=elbowEdgeStyle;elbow=vertical;endArrow=classicThin;html=1;rounded=0;fontSize=16;exitX=0.25;exitY=0;exitDx=0;exitDy=0;dashed=1;dashPattern=1 2;endFill=1;startArrow=classicThin;startFill=1;entryX=1;entryY=0.5;entryDx=0;entryDy=0;fontColor=#006600;strokeColor=#006600;" edge="1" parent="1" source="bBt4X0M5Szbjh47Dpjpm-2" target="bBt4X0M5Szbjh47Dpjpm-4">
          <mxGeometry width="50" height="50" relative="1" as="geometry">
            <mxPoint x="470" y="490" as="sourcePoint" />
            <mxPoint x="630" y="430" as="targetPoint" />
            <Array as="points">
              <mxPoint x="390" y="390" />
            </Array>
          </mxGeometry>
        </mxCell>
        <mxCell id="bBt4X0M5Szbjh47Dpjpm-58" value="" style="edgeStyle=elbowEdgeStyle;elbow=vertical;endArrow=classicThin;html=1;rounded=0;fontSize=16;exitX=0.5;exitY=0;exitDx=0;exitDy=0;dashed=1;dashPattern=1 2;endFill=1;startArrow=classicThin;startFill=1;entryX=1;entryY=0.25;entryDx=0;entryDy=0;fontColor=#006600;strokeColor=#006600;" edge="1" parent="1" source="bBt4X0M5Szbjh47Dpjpm-2" target="bBt4X0M5Szbjh47Dpjpm-3">
          <mxGeometry width="50" height="50" relative="1" as="geometry">
            <mxPoint x="434" y="455" as="sourcePoint" />
            <mxPoint x="340" y="365" as="targetPoint" />
            <Array as="points">
              <mxPoint x="340" y="360" />
            </Array>
          </mxGeometry>
        </mxCell>
        <mxCell id="bBt4X0M5Szbjh47Dpjpm-59" value="&lt;font style=&quot;font-size: 10px;&quot;&gt;GPIO&lt;/font&gt;" style="edgeLabel;html=1;align=center;verticalAlign=middle;resizable=0;points=[];fontSize=16;fontColor=#006600;" vertex="1" connectable="0" parent="1">
          <mxGeometry x="383" y="385.0019047619047" as="geometry">
            <mxPoint x="2" y="4" as="offset" />
          </mxGeometry>
        </mxCell>
        <mxCell id="bBt4X0M5Szbjh47Dpjpm-60" value="&lt;font style=&quot;font-size: 10px;&quot;&gt;GPIO&lt;/font&gt;" style="edgeLabel;html=1;align=center;verticalAlign=middle;resizable=0;points=[];fontSize=16;fontColor=#006600;" vertex="1" connectable="0" parent="1">
          <mxGeometry x="355" y="355.0019047619047" as="geometry">
            <mxPoint x="2" y="4" as="offset" />
          </mxGeometry>
        </mxCell>
        <mxCell id="bBt4X0M5Szbjh47Dpjpm-61" value="" style="edgeStyle=elbowEdgeStyle;elbow=vertical;endArrow=classic;html=1;rounded=0;fontSize=14;entryX=0;entryY=0.5;entryDx=0;entryDy=0;fillColor=#bac8d3;strokeColor=#67AB9F;strokeWidth=3;exitX=0.5;exitY=0;exitDx=0;exitDy=0;" edge="1" parent="1" source="bBt4X0M5Szbjh47Dpjpm-3" target="bBt4X0M5Szbjh47Dpjpm-6">
          <mxGeometry width="50" height="50" relative="1" as="geometry">
            <mxPoint x="296" y="380" as="sourcePoint" />
            <mxPoint x="442" y="340" as="targetPoint" />
            <Array as="points">
              <mxPoint x="310" y="320" />
            </Array>
          </mxGeometry>
        </mxCell>
        <mxCell id="bBt4X0M5Szbjh47Dpjpm-62" value="EN" style="edgeLabel;html=1;align=center;verticalAlign=middle;resizable=0;points=[];fontSize=7;fontColor=#006600;labelBackgroundColor=none;" vertex="1" connectable="0" parent="1">
          <mxGeometry x="317" y="386.0019047619047" as="geometry">
            <mxPoint x="2" y="4" as="offset" />
          </mxGeometry>
        </mxCell>
        <mxCell id="bBt4X0M5Szbjh47Dpjpm-63" value="EN" style="edgeLabel;html=1;align=center;verticalAlign=middle;resizable=0;points=[];fontSize=7;fontColor=#006600;labelBackgroundColor=none;" vertex="1" connectable="0" parent="1">
          <mxGeometry x="222" y="355.0019047619047" as="geometry">
            <mxPoint x="2" y="4" as="offset" />
          </mxGeometry>
        </mxCell>
        <mxCell id="bBt4X0M5Szbjh47Dpjpm-64" value="&lt;div style=&quot;font-size: 10px;&quot;&gt;&lt;font style=&quot;font-size: 10px;&quot; color=&quot;#26a269&quot;&gt;DC Power&lt;/font&gt;&lt;/div&gt;&lt;div&gt;&lt;font color=&quot;#26a269&quot;&gt;Input&lt;/font&gt;&lt;/div&gt;" style="html=1;whiteSpace=wrap;container=1;recursiveResize=0;collapsible=0;fontSize=10;fillColor=#b0e3e6;strokeColor=#0e8088;" vertex="1" parent="1">
          <mxGeometry x="131" y="660" width="60" height="40" as="geometry" />
        </mxCell>
        <mxCell id="bBt4X0M5Szbjh47Dpjpm-65" value="" style="shape=flexArrow;endArrow=classic;html=1;rounded=0;fontSize=7;fontColor=#006600;endSize=4.128571428571428;strokeColor=#b85450;strokeWidth=1;elbow=vertical;jumpSize=6;entryX=0;entryY=0.5;entryDx=0;entryDy=0;exitX=1;exitY=0.5;exitDx=0;exitDy=0;width=7.619047619047619;endWidth=15.419501133786847;fillColor=none;gradientColor=#ffffff;" edge="1" parent="1" source="bBt4X0M5Szbjh47Dpjpm-64" target="bBt4X0M5Szbjh47Dpjpm-46">
          <mxGeometry width="50" height="50" relative="1" as="geometry">
            <mxPoint x="190" y="680" as="sourcePoint" />
            <mxPoint x="200.5" y="670" as="targetPoint" />
          </mxGeometry>
        </mxCell>
        <mxCell id="bBt4X0M5Szbjh47Dpjpm-66" value="" style="shape=image;imageAspect=0;aspect=fixed;verticalLabelPosition=bottom;verticalAlign=top;image=https://www.cypouz.com/sites/default/files/article/logo_cc-by-sa.png;" vertex="1" parent="1">
          <mxGeometry x="620" y="722.95" width="79.57" height="28.05" as="geometry" />
        </mxCell>
        <mxCell id="bBt4X0M5Szbjh47Dpjpm-67" value="&lt;b&gt;Output&lt;/b&gt;" style="html=1;whiteSpace=wrap;container=1;recursiveResize=0;collapsible=0;fontSize=14;fillColor=#e3c800;strokeColor=#B09500;fontColor=#000000;gradientColor=#aaff7f;gradientDirection=east;" vertex="1" parent="1">
          <mxGeometry x="620" y="385" width="70" height="40" as="geometry" />
        </mxCell>
        <mxCell id="bBt4X0M5Szbjh47Dpjpm-68" value="" style="endArrow=classic;html=1;rounded=0;entryX=0;entryY=0.5;entryDx=0;entryDy=0;exitX=1;exitY=0.5;exitDx=0;exitDy=0;" edge="1" parent="1" source="bBt4X0M5Szbjh47Dpjpm-29" target="bBt4X0M5Szbjh47Dpjpm-67">
          <mxGeometry width="50" height="50" relative="1" as="geometry">
            <mxPoint x="390" y="460" as="sourcePoint" />
            <mxPoint x="440" y="410" as="targetPoint" />
          </mxGeometry>
        </mxCell>
      </root>
    </mxGraphModel>
  </diagram>
</mxfile>
